# xmcd CD database file
#
# Track frame offsets:
#	150
#	26073
#	45755
#	71983
#	91438
#	117371
#	137024
#	162999
#
# Disc length: 2430 seconds
#
# Revision: 7
# Processed by: cddbd v1.5.2PL0 Copyright (c) Steve Scherf et al.
# Submitted via: CDex 1.70beta2
#
DISCID=69097c08
DTITLE=EXILE - The Birthday - Ti Amo -
DYEAR=2008
DGENRE=JPop
TTITLE0=Ti Amo
TTITLE1=SUPER SHINE feat.VERBAL (m-fio)
TTITLE2=24karats feat. J Soul Brothers and DOBERMAN INC
TTITLE3=Your eyes only - 曖昧なぼくの輪郭-
TTITLE4=Ti Amo - Instrumental -
TTITLE5=SUPER SHINE feat.VERBAL (m-fio)  - Instrumental -
TTITLE6=24karats feat. J Soul Brothers and DOBERMAN INC - Instrumental -
TTITLE7=Your eyes only - Aimai Na Boku No Katachi - Instrumental -
EXTD=YEAR: 2008
EXTT0=
EXTT1=
EXTT2=
EXTT3=
EXTT4=
EXTT5=
EXTT6=
EXTT7=
PLAYORDER=
